<?xml version="1.0" encoding="UTF-8"?>
<svg viewBox="0 0 48 48" xmlns="http://www.w3.org/2000/svg">
  <defs>
    <linearGradient id="faviconGradient" x1="0%" y1="0%" x2="100%" y2="100%">
      <stop offset="0%" stop-color="#4A55A2"/>
      <stop offset="100%" stop-color="#745470"/>
    </linearGradient>
  </defs>
  <!-- Main circle background -->
  <circle cx="24" cy="24" r="22" fill="url(#faviconGradient)"/>
  <!-- Sync arrows -->
  <path d="M16 12 C20 8, 28 8, 32 12 L30 14 M32 36 C28 40, 20 40, 16 36 L18 34" stroke="white" stroke-width="2.5" stroke-linecap="round" fill="none"/>
  <!-- Code brackets -->
  <path d="M14 18 L10 22 L14 26" stroke="white" stroke-width="2" stroke-linecap="round" fill="none"/>
  <path d="M34 18 L38 22 L34 26" stroke="white" stroke-width="2" stroke-linecap="round" fill="none"/>
  <!-- Center data grid -->
  <rect x="20" y="20" width="2" height="2" fill="white" opacity="0.8"/>
  <rect x="24" y="20" width="2" height="2" fill="white" opacity="0.8"/>
  <rect x="28" y="20" width="2" height="2" fill="white" opacity="0.8"/>
  <rect x="20" y="24" width="2" height="2" fill="white" opacity="0.8"/>
  <rect x="24" y="24" width="2" height="2" fill="white" opacity="0.8"/>
  <rect x="28" y="24" width="2" height="2" fill="white" opacity="0.8"/>
  <!-- Small gear icon -->
  <circle cx="38" cy="10" r="6" fill="#DDE0FF" stroke="#4A55A2" stroke-width="1"/>
  <path d="M38 6 L38 4 M42 10 L44 10 M38 14 L38 16 M34 10 L32 10" stroke="#4A55A2" stroke-width="1" stroke-linecap="round"/>
</svg>
