<?xml version="1.0" encoding="UTF-8"?>
<svg viewBox="0 0 48 48" xmlns="http://www.w3.org/2000/svg">
  <defs>
    <linearGradient id="faviconGradient" x1="0%" y1="0%" x2="100%" y2="0%">
      <stop offset="0%" stop-color="#6750A4"/>
      <stop offset="50%" stop-color="#8B5CF6"/>
      <stop offset="100%" stop-color="#10B981"/>
    </linearGradient>
    <linearGradient id="faviconGradient2" x1="0%" y1="0%" x2="100%" y2="100%">
      <stop offset="0%" stop-color="#8B5CF6"/>
      <stop offset="100%" stop-color="#6750A4"/>
    </linearGradient>
  </defs>
  
  <!-- Background circle -->
  <circle cx="24" cy="24" r="22" fill="#F5F5F5" opacity="0.5"/>
  
  <!-- Central node -->
  <circle cx="24" cy="24" r="5" fill="url(#faviconGradient2)"/>
  
  <!-- Network nodes -->
  <circle cx="24" cy="10" r="3.5" fill="#8B5CF6"/>
  <circle cx="36" cy="17" r="3.5" fill="#10B981"/>
  <circle cx="36" cy="31" r="3.5" fill="#6750A4"/>
  <circle cx="24" cy="38" r="3.5" fill="#8B5CF6"/>
  <circle cx="12" cy="31" r="3.5" fill="#10B981"/>
  <circle cx="12" cy="17" r="3.5" fill="#6750A4"/>
  
  <!-- Connection lines -->
  <line x1="24" y1="24" x2="24" y2="10" stroke="url(#faviconGradient)" stroke-width="1.5" opacity="0.4"/>
  <line x1="24" y1="24" x2="36" y2="17" stroke="url(#faviconGradient)" stroke-width="1.5" opacity="0.4"/>
  <line x1="24" y1="24" x2="36" y2="31" stroke="url(#faviconGradient)" stroke-width="1.5" opacity="0.4"/>
  <line x1="24" y1="24" x2="24" y2="38" stroke="url(#faviconGradient)" stroke-width="1.5" opacity="0.4"/>
  <line x1="24" y1="24" x2="12" y2="31" stroke="url(#faviconGradient)" stroke-width="1.5" opacity="0.4"/>
  <line x1="24" y1="24" x2="12" y2="17" stroke="url(#faviconGradient)" stroke-width="1.5" opacity="0.4"/>
  
  <!-- Outer connections -->
  <line x1="24" y1="10" x2="36" y2="17" stroke="url(#faviconGradient)" stroke-width="1" opacity="0.2"/>
  <line x1="36" y1="17" x2="36" y2="31" stroke="url(#faviconGradient)" stroke-width="1" opacity="0.2"/>
  <line x1="36" y1="31" x2="24" y2="38" stroke="url(#faviconGradient)" stroke-width="1" opacity="0.2"/>
  <line x1="24" y1="38" x2="12" y2="31" stroke="url(#faviconGradient)" stroke-width="1" opacity="0.2"/>
  <line x1="12" y1="31" x2="12" y2="17" stroke="url(#faviconGradient)" stroke-width="1" opacity="0.2"/>
  <line x1="12" y1="17" x2="24" y2="10" stroke="url(#faviconGradient)" stroke-width="1" opacity="0.2"/>
</svg>