<?xml version="1.0" encoding="UTF-8"?>
<svg viewBox="0 0 200 48" xmlns="http://www.w3.org/2000/svg" aria-label="Trinly">
  <defs>
    <linearGradient id="logoIconGradient" x1="0%" y1="0%" x2="100%" y2="0%">
      <stop offset="0%" stop-color="#6750A4"/>
      <stop offset="50%" stop-color="#8B5CF6"/>
      <stop offset="100%" stop-color="#10B981"/>
    </linearGradient>
    <linearGradient id="logoIconGradient2" x1="0%" y1="0%" x2="100%" y2="100%">
      <stop offset="0%" stop-color="#8B5CF6"/>
      <stop offset="100%" stop-color="#6750A4"/>
    </linearGradient>
  </defs>
  <g transform="translate(0, 2) scale(0.72)">
    <circle cx="30" cy="30" r="5" fill="url(#logoIconGradient2)"/>
    <circle cx="30" cy="12" r="4" fill="#8B5CF6" opacity="0.9"/>
    <circle cx="45" cy="20" r="4" fill="#10B981" opacity="0.9"/>
    <circle cx="45" cy="40" r="4" fill="#6750A4" opacity="0.9"/>
    <circle cx="30" cy="48" r="4" fill="#8B5CF6" opacity="0.9"/>
    <circle cx="15" cy="40" r="4" fill="#10B981" opacity="0.9"/>
    <circle cx="15" cy="20" r="4" fill="#6750A4" opacity="0.9"/>
    <line x1="30" y1="30" x2="30" y2="12" stroke="url(#logoIconGradient)" stroke-width="2" opacity="0.3"/>
    <line x1="30" y1="30" x2="45" y2="20" stroke="url(#logoIconGradient)" stroke-width="2" opacity="0.3"/>
    <line x1="30" y1="30" x2="45" y2="40" stroke="url(#logoIconGradient)" stroke-width="2" opacity="0.3"/>
    <line x1="30" y1="30" x2="30" y2="48" stroke="url(#logoIconGradient)" stroke-width="2" opacity="0.3"/>
    <line x1="30" y1="30" x2="15" y2="40" stroke="url(#logoIconGradient)" stroke-width="2" opacity="0.3"/>
    <line x1="30" y1="30" x2="15" y2="20" stroke="url(#logoIconGradient)" stroke-width="2" opacity="0.3"/>
    <line x1="30" y1="12" x2="45" y2="20" stroke="#8B5CF6" stroke-width="1.5" opacity="0.6"/>
    <line x1="45" y1="40" x2="30" y2="48" stroke="#6750A4" stroke-width="1.5" opacity="0.6"/>
    <line x1="15" y1="20" x2="15" y2="40" stroke="#10B981" stroke-width="1.5" opacity="0.6"/>
    <circle cx="30" cy="30" r="12" fill="none" stroke="url(#logoIconGradient)" stroke-width="0.5" opacity="0.5"/>
  </g>
  <text x="56" y="31" font-family="Georgia, 'Times New Roman', serif" font-size="22" fill="#1A1614" letter-spacing="-0.02em">Trinly</text>
</svg>
